<svg aria-roledescription="flowchart-v2" role="graphics-document document" viewBox="-8 -8 1104.470703125 785.6640625" style="max-width: 1104.470703125px;" xmlns="http://www.w3.org/2000/svg" width="100%" id="mermaid-svg-1763540638319-eehm2tmvt"><style>#mermaid-svg-1763540638319-eehm2tmvt{font-family:"trebuchet ms",verdana,arial,sans-serif;font-size:16px;fill:rgba(228, 228, 228, 0.92);}#mermaid-svg-1763540638319-eehm2tmvt .error-icon{fill:#141414;}#mermaid-svg-1763540638319-eehm2tmvt .error-text{fill:#e34671;stroke:#e34671;}#mermaid-svg-1763540638319-eehm2tmvt .edge-thickness-normal{stroke-width:2px;}#mermaid-svg-1763540638319-eehm2tmvt .edge-thickness-thick{stroke-width:3.5px;}#mermaid-svg-1763540638319-eehm2tmvt .edge-pattern-solid{stroke-dasharray:0;}#mermaid-svg-1763540638319-eehm2tmvt .edge-pattern-dashed{stroke-dasharray:3;}#mermaid-svg-1763540638319-eehm2tmvt .edge-pattern-dotted{stroke-dasharray:2;}#mermaid-svg-1763540638319-eehm2tmvt .marker{fill:rgba(228, 228, 228, 0.92);stroke:rgba(228, 228, 228, 0.92);}#mermaid-svg-1763540638319-eehm2tmvt .marker.cross{stroke:rgba(228, 228, 228, 0.92);}#mermaid-svg-1763540638319-eehm2tmvt svg{font-family:"trebuchet ms",verdana,arial,sans-serif;font-size:16px;}#mermaid-svg-1763540638319-eehm2tmvt .label{font-family:"trebuchet ms",verdana,arial,sans-serif;color:rgba(228, 228, 228, 0.92);}#mermaid-svg-1763540638319-eehm2tmvt .cluster-label text{fill:rgba(228, 228, 228, 0.92);}#mermaid-svg-1763540638319-eehm2tmvt .cluster-label span,#mermaid-svg-1763540638319-eehm2tmvt p{color:rgba(228, 228, 228, 0.92);}#mermaid-svg-1763540638319-eehm2tmvt .label text,#mermaid-svg-1763540638319-eehm2tmvt span,#mermaid-svg-1763540638319-eehm2tmvt p{fill:rgba(228, 228, 228, 0.92);color:rgba(228, 228, 228, 0.92);}#mermaid-svg-1763540638319-eehm2tmvt .node rect,#mermaid-svg-1763540638319-eehm2tmvt .node circle,#mermaid-svg-1763540638319-eehm2tmvt .node ellipse,#mermaid-svg-1763540638319-eehm2tmvt .node polygon,#mermaid-svg-1763540638319-eehm2tmvt .node path{fill:#181818;stroke:rgba(228, 228, 228, 0.07);stroke-width:1px;}#mermaid-svg-1763540638319-eehm2tmvt .flowchart-label text{text-anchor:middle;}#mermaid-svg-1763540638319-eehm2tmvt .node .label{text-align:center;}#mermaid-svg-1763540638319-eehm2tmvt .node.clickable{cursor:pointer;}#mermaid-svg-1763540638319-eehm2tmvt .arrowheadPath{fill:#e7e7e7;}#mermaid-svg-1763540638319-eehm2tmvt .edgePath .path{stroke:rgba(228, 228, 228, 0.92);stroke-width:2.0px;}#mermaid-svg-1763540638319-eehm2tmvt .flowchart-link{stroke:rgba(228, 228, 228, 0.92);fill:none;}#mermaid-svg-1763540638319-eehm2tmvt .edgeLabel{background-color:#18181899;text-align:center;}#mermaid-svg-1763540638319-eehm2tmvt .edgeLabel rect{opacity:0.5;background-color:#18181899;fill:#18181899;}#mermaid-svg-1763540638319-eehm2tmvt .labelBkg{background-color:rgba(24, 24, 24, 0.5);}#mermaid-svg-1763540638319-eehm2tmvt .cluster rect{fill:rgba(64, 64, 64, 0.47);stroke:rgba(228, 228, 228, 0.15);stroke-width:1px;}#mermaid-svg-1763540638319-eehm2tmvt .cluster text{fill:rgba(228, 228, 228, 0.92);}#mermaid-svg-1763540638319-eehm2tmvt .cluster span,#mermaid-svg-1763540638319-eehm2tmvt p{color:rgba(228, 228, 228, 0.92);}#mermaid-svg-1763540638319-eehm2tmvt div.mermaidTooltip{position:absolute;text-align:center;max-width:200px;padding:2px;font-family:"trebuchet ms",verdana,arial,sans-serif;font-size:12px;background:#88c0d0;border:1px solid rgba(228, 228, 228, 0.15);border-radius:2px;pointer-events:none;z-index:100;}#mermaid-svg-1763540638319-eehm2tmvt .flowchartTitleText{text-anchor:middle;font-size:18px;fill:rgba(228, 228, 228, 0.92);}#mermaid-svg-1763540638319-eehm2tmvt :root{--mermaid-font-family:"trebuchet ms",verdana,arial,sans-serif;}#mermaid-svg-1763540638319-eehm2tmvt .pod rect{fill:#e3f2fd!important;stroke:#1565c0!important;stroke-width:2px!important;color:#0d47a1!important;}#mermaid-svg-1763540638319-eehm2tmvt .pod polygon{fill:#e3f2fd!important;stroke:#1565c0!important;stroke-width:2px!important;color:#0d47a1!important;}#mermaid-svg-1763540638319-eehm2tmvt .pod ellipse{fill:#e3f2fd!important;stroke:#1565c0!important;stroke-width:2px!important;color:#0d47a1!important;}#mermaid-svg-1763540638319-eehm2tmvt .pod circle{fill:#e3f2fd!important;stroke:#1565c0!important;stroke-width:2px!important;color:#0d47a1!important;}#mermaid-svg-1763540638319-eehm2tmvt .pod path{fill:#e3f2fd!important;stroke:#1565c0!important;stroke-width:2px!important;color:#0d47a1!important;}#mermaid-svg-1763540638319-eehm2tmvt .pod tspan{fill:#0d47a1!important;}#mermaid-svg-1763540638319-eehm2tmvt .controller rect{fill:#f3e5f5!important;stroke:#7b1fa2!important;stroke-width:2px!important;color:#4a148c!important;}#mermaid-svg-1763540638319-eehm2tmvt .controller polygon{fill:#f3e5f5!important;stroke:#7b1fa2!important;stroke-width:2px!important;color:#4a148c!important;}#mermaid-svg-1763540638319-eehm2tmvt .controller ellipse{fill:#f3e5f5!important;stroke:#7b1fa2!important;stroke-width:2px!important;color:#4a148c!important;}#mermaid-svg-1763540638319-eehm2tmvt .controller circle{fill:#f3e5f5!important;stroke:#7b1fa2!important;stroke-width:2px!important;color:#4a148c!important;}#mermaid-svg-1763540638319-eehm2tmvt .controller path{fill:#f3e5f5!important;stroke:#7b1fa2!important;stroke-width:2px!important;color:#4a148c!important;}#mermaid-svg-1763540638319-eehm2tmvt .controller tspan{fill:#4a148c!important;}</style><g><marker orient="auto" markerHeight="12" markerWidth="12" markerUnits="userSpaceOnUse" refY="5" refX="6" viewBox="0 0 10 10" class="marker flowchart" id="mermaid-svg-1763540638319-eehm2tmvt_flowchart-pointEnd"><path style="stroke-width: 1; stroke-dasharray: 1, 0;" class="arrowMarkerPath" d="M 0 0 L 10 5 L 0 10 z"/></marker><marker orient="auto" markerHeight="12" markerWidth="12" markerUnits="userSpaceOnUse" refY="5" refX="4.5" viewBox="0 0 10 10" class="marker flowchart" id="mermaid-svg-1763540638319-eehm2tmvt_flowchart-pointStart"><path style="stroke-width: 1; stroke-dasharray: 1, 0;" class="arrowMarkerPath" d="M 0 5 L 10 10 L 10 0 z"/></marker><marker orient="auto" markerHeight="11" markerWidth="11" markerUnits="userSpaceOnUse" refY="5" refX="11" viewBox="0 0 10 10" class="marker flowchart" id="mermaid-svg-1763540638319-eehm2tmvt_flowchart-circleEnd"><circle style="stroke-width: 1; stroke-dasharray: 1, 0;" class="arrowMarkerPath" r="5" cy="5" cx="5"/></marker><marker orient="auto" markerHeight="11" markerWidth="11" markerUnits="userSpaceOnUse" refY="5" refX="-1" viewBox="0 0 10 10" class="marker flowchart" id="mermaid-svg-1763540638319-eehm2tmvt_flowchart-circleStart"><circle style="stroke-width: 1; stroke-dasharray: 1, 0;" class="arrowMarkerPath" r="5" cy="5" cx="5"/></marker><marker orient="auto" markerHeight="11" markerWidth="11" markerUnits="userSpaceOnUse" refY="5.2" refX="12" viewBox="0 0 11 11" class="marker cross flowchart" id="mermaid-svg-1763540638319-eehm2tmvt_flowchart-crossEnd"><path style="stroke-width: 2; stroke-dasharray: 1, 0;" class="arrowMarkerPath" d="M 1,1 l 9,9 M 10,1 l -9,9"/></marker><marker orient="auto" markerHeight="11" markerWidth="11" markerUnits="userSpaceOnUse" refY="5.2" refX="-1" viewBox="0 0 11 11" class="marker cross flowchart" id="mermaid-svg-1763540638319-eehm2tmvt_flowchart-crossStart"><path style="stroke-width: 2; stroke-dasharray: 1, 0;" class="arrowMarkerPath" d="M 1,1 l 9,9 M 10,1 l -9,9"/></marker><g class="root"><g class="clusters"><g id="K8s" class="cluster default flowchart-label"><rect height="587" width="1088.470703125" y="182.6640625" x="0" ry="0" rx="0" style="fill:#f5f5f5;stroke:#333;stroke-width:2px;"/><g transform="translate(544.2353515625, 182.6640625)" class="cluster-label"><text style=""><tspan class="row" x="0" dy="1em" xml:space="preserve">Kubernetes Cluster</tspan></text></g></g><g id="Nodes" class="cluster default flowchart-label"><rect height="537" width="882.400390625" y="207.6640625" x="186.0703125" ry="0" rx="0" style="fill:#ffffff;stroke:#666;stroke-dasharray: 5 5;"/><g transform="translate(627.2705078125, 207.6640625)" class="cluster-label"><text style=""><tspan class="row" x="0" dy="1em" xml:space="preserve">Worker Nodes</tspan></text></g></g><g id="Interactive" class="cluster default flowchart-label"><rect height="360" width="389.439453125" y="232.6640625" x="206.0703125" ry="0" rx="0" style=""/><g transform="translate(400.7900390625, 232.6640625)" class="cluster-label"><text style=""><tspan class="row" x="0" dy="1em" xml:space="preserve">Namespace: jhub-dev</tspan></text></g></g><g id="System" class="cluster default flowchart-label"><rect height="83.5" width="317.263671875" y="341.1640625" x="726.3671875" ry="0" rx="0" style=""/><g transform="translate(884.9990234375, 341.1640625)" class="cluster-label"><text style=""><tspan class="row" x="0" dy="1em" xml:space="preserve">Namespace: spark-operator</tspan></text></g></g><g id="Compute" class="cluster default flowchart-label"><rect height="226.5" width="300.798828125" y="493.1640625" x="615.509765625" ry="0" rx="0" style=""/><g transform="translate(765.9091796875, 493.1640625)" class="cluster-label"><text style=""><tspan class="row" x="0" dy="1em" xml:space="preserve">Namespace: default</tspan></text></g></g></g><g class="edgePaths"><path marker-end="url(#mermaid-svg-1763540638319-eehm2tmvt_flowchart-pointEnd)" style="fill:none;" class="edge-thickness-normal edge-pattern-solid flowchart-link LS-User LE-Proxy" id="L-User-Proxy-0" d="M325.338,94.55L335.656,103.527C345.975,112.504,366.611,130.459,376.93,145.145C387.248,159.831,387.248,171.247,387.248,181.122C387.248,190.997,387.248,199.331,387.248,207.664C387.248,215.997,387.248,224.331,387.248,231.781C387.248,239.231,387.248,245.797,387.248,249.081L387.248,252.364"/><path marker-end="url(#mermaid-svg-1763540638319-eehm2tmvt_flowchart-pointEnd)" style="fill:none;" class="edge-thickness-normal edge-pattern-solid flowchart-link LS-Proxy LE-Hub" id="L-Proxy-Hub-0" d="M421.688,291.164L430.256,295.331C438.823,299.497,455.957,307.831,464.525,316.164C473.092,324.497,473.092,332.831,473.092,340.281C473.092,347.731,473.092,354.297,473.092,357.581L473.092,360.864"/><path marker-end="url(#mermaid-svg-1763540638319-eehm2tmvt_flowchart-pointEnd)" style="fill:none;" class="edge-thickness-normal edge-pattern-solid flowchart-link LS-Hub LE-NbPod" id="L-Hub-NbPod-0" d="M473.092,399.664L473.092,403.831C473.092,407.997,473.092,416.331,473.092,426.206C473.092,436.081,473.092,447.497,473.092,458.914C473.092,470.331,473.092,481.747,466.666,491.179C460.241,500.612,447.39,508.059,440.965,511.783L434.54,515.507"/><path marker-end="url(#mermaid-svg-1763540638319-eehm2tmvt_flowchart-pointEnd)" style="fill:none;" class="edge-thickness-normal edge-pattern-solid flowchart-link LS-Proxy LE-NbPod" id="L-Proxy-NbPod-0" d="M352.808,291.164L344.24,295.331C335.673,299.497,318.539,307.831,309.972,316.164C301.404,324.497,301.404,332.831,301.404,343.956C301.404,355.081,301.404,368.997,301.404,382.914C301.404,396.831,301.404,410.747,301.404,423.414C301.404,436.081,301.404,447.497,301.404,458.914C301.404,470.331,301.404,481.747,307.83,491.179C314.255,500.612,327.106,508.059,333.531,511.783L339.956,515.507"/><path marker-end="url(#mermaid-svg-1763540638319-eehm2tmvt_flowchart-pointEnd)" style="fill:none;" class="edge-thickness-normal edge-pattern-solid flowchart-link LS-NbPod LE-Exec" id="L-NbPod-Exec-0" d="M455.43,567.664L466.909,571.831C478.387,575.997,501.344,584.331,542.534,594.206C583.725,604.081,643.148,615.497,678.445,626.318C713.742,637.138,724.912,647.362,730.497,652.474L736.082,657.586"/><path marker-end="url(#mermaid-svg-1763540638319-eehm2tmvt_flowchart-pointEnd)" style="fill:none;stroke-width:2px;stroke-dasharray:3;" class="edge-thickness-normal edge-pattern-dotted flowchart-link LS-NbPod LE-api" id="L-NbPod-api-0" d="M337.642,567.664L329.291,571.831C320.94,575.997,304.237,584.331,295.886,594.206C287.535,604.081,287.535,615.497,265.645,626.945C243.756,638.393,199.976,649.873,178.087,655.613L156.197,661.352"/><path marker-end="url(#mermaid-svg-1763540638319-eehm2tmvt_flowchart-pointEnd)" style="fill:none;stroke-width:2px;stroke-dasharray:3;" class="edge-thickness-normal edge-pattern-dotted flowchart-link LS-User LE-api" id="L-User-api-0" d="M230.866,81.893L207.894,92.98C184.922,104.067,138.979,126.24,116.007,143.036C93.035,159.831,93.035,171.247,93.035,181.122C93.035,190.997,93.035,199.331,93.035,207.664C93.035,215.997,93.035,224.331,93.035,235.456C93.035,246.581,93.035,260.497,93.035,274.414C93.035,288.331,93.035,302.247,93.035,313.372C93.035,324.497,93.035,332.831,93.035,343.956C93.035,355.081,93.035,368.997,93.035,382.914C93.035,396.831,93.035,410.747,93.035,423.414C93.035,436.081,93.035,447.497,93.035,458.914C93.035,470.331,93.035,481.747,93.035,495.747C93.035,509.747,93.035,526.331,93.035,542.914C93.035,559.497,93.035,576.081,93.035,590.081C93.035,604.081,93.035,615.497,93.035,626.031C93.035,636.564,93.035,646.214,93.035,651.039L93.035,655.864"/><path marker-end="url(#mermaid-svg-1763540638319-eehm2tmvt_flowchart-pointEnd)" style="fill:none;" class="edge-thickness-normal edge-pattern-solid flowchart-link LS-Op LE-api" id="L-Op-api-0" d="M922.314,399.664L929.593,403.831C936.872,407.997,951.43,416.331,958.709,426.206C965.988,436.081,965.988,447.497,965.988,458.914C965.988,470.331,965.988,481.747,965.988,495.747C965.988,509.747,965.988,526.331,965.988,542.914C965.988,559.497,965.988,576.081,965.988,590.081C965.988,604.081,965.988,615.497,831.05,629.089C696.113,642.681,426.237,658.448,291.299,666.331L156.361,674.214"/><path marker-end="url(#mermaid-svg-1763540638319-eehm2tmvt_flowchart-pointEnd)" style="fill:none;" class="edge-thickness-normal edge-pattern-solid flowchart-link LS-Op LE-Batch" id="L-Op-Batch-0" d="M861.341,399.664L853.452,403.831C845.564,407.997,829.787,416.331,821.898,426.206C814.01,436.081,814.01,447.497,814.01,458.914C814.01,470.331,814.01,481.747,814.01,492.072C814.01,502.397,814.01,511.631,814.01,516.247L814.01,520.864"/><path marker-end="url(#mermaid-svg-1763540638319-eehm2tmvt_flowchart-pointEnd)" style="fill:none;" class="edge-thickness-normal edge-pattern-solid flowchart-link LS-Batch LE-Exec" id="L-Batch-Exec-0" d="M814.01,559.664L814.01,565.164C814.01,570.664,814.01,581.664,814.01,592.872C814.01,604.081,814.01,615.497,808.425,626.318C802.84,637.138,791.67,647.362,786.085,652.474L780.5,657.586"/></g><g class="edgeLabels"><g transform="translate(387.248046875, 148.4140625)" class="edgeLabel"><g transform="translate(-64.85546875, -9.25)" class="label"><rect height="18.500185012817383" width="129.6731719970703" ry="0" rx="0"/><text style=""><tspan class="row" x="0" dy="1em" xml:space="preserve">Browser Port 8000</tspan></text></g></g><g class="edgeLabel"><g transform="translate(0, 0)" class="label"><rect height="0" width="0" ry="0" rx="0"/><text style=""><tspan class="row" x="0" dy="1em" xml:space="preserve"/></text></g></g><g transform="translate(473.091796875, 458.9140625)" class="edgeLabel"><g transform="translate(-41.31640625, -9.25)" class="label"><rect height="18.500185012817383" width="82.61019897460938" ry="0" rx="0"/><text style=""><tspan class="row" x="0" dy="1em" xml:space="preserve">Spawns Pod</tspan></text></g></g><g transform="translate(301.404296875, 382.9140625)" class="edgeLabel"><g transform="translate(-49.26953125, -9.25)" class="label"><rect height="18.500185012817383" width="98.51660919189453" ry="0" rx="0"/><text style=""><tspan class="row" x="0" dy="1em" xml:space="preserve">Routes Traffic</tspan></text></g></g><g transform="translate(702.572265625, 626.9140625)" class="edgeLabel"><g transform="translate(-45.71875, -9.25)" class="label"><rect height="18.500185012817383" width="91.41497802734375" ry="0" rx="0"/><text style=""><tspan class="row" x="0" dy="1em" xml:space="preserve">Creates Pods</tspan></text></g></g><g transform="translate(287.53515625, 626.9140625)" class="edgeLabel"><g transform="translate(-41.53125, -9.25)" class="label"><rect height="18.500185012817383" width="83.0398941040039" ry="0" rx="0"/><text style=""><tspan class="row" x="0" dy="1em" xml:space="preserve">K8s API Call</tspan></text></g></g><g transform="translate(93.03515625, 382.9140625)" class="edgeLabel"><g transform="translate(-48.55078125, -9.25)" class="label"><rect height="18.500185012817383" width="97.07909393310547" ry="0" rx="0"/><text style=""><tspan class="row" x="0" dy="1em" xml:space="preserve">kubectl apply</tspan></text></g></g><g transform="translate(965.98828125, 542.9140625)" class="edgeLabel"><g transform="translate(-29.6796875, -9.25)" class="label"><rect height="18.500185012817383" width="59.34434509277344" ry="0" rx="0"/><text style=""><tspan class="row" x="0" dy="1em" xml:space="preserve">Watches</tspan></text></g></g><g transform="translate(814.009765625, 458.9140625)" class="edgeLabel"><g transform="translate(-45.71875, -9.25)" class="label"><rect height="18.500185012817383" width="91.41497802734375" ry="0" rx="0"/><text style=""><tspan class="row" x="0" dy="1em" xml:space="preserve">Creates Pods</tspan></text></g></g><g transform="translate(814.009765625, 626.9140625)" class="edgeLabel"><g transform="translate(-45.71875, -9.25)" class="label"><rect height="18.500185012817383" width="91.41497802734375" ry="0" rx="0"/><text style=""><tspan class="row" x="0" dy="1em" xml:space="preserve">Creates Pods</tspan></text></g></g></g><g class="nodes"><g transform="translate(93.03515625, 677.9140625)" id="flowchart-api-534" class="node default default flowchart-label"><rect height="33.5" width="116.0703125" y="-16.75" x="-58.03515625" ry="0" rx="0" style="" class="basic label-container"/><g transform="translate(0, -9.25)" style="" class="label"><rect/><text style=""><tspan class="row" x="0" dy="1em" xml:space="preserve">K8s API Server</tspan></text></g></g><g transform="translate(758.291015625, 677.9140625)" id="flowchart-Exec-539" class="node default pod flowchart-label"><rect height="33.5" width="146.8125" y="-16.75" x="-73.40625" ry="0" rx="0" style="" class="basic label-container"/><g transform="translate(0, -9.25)" style="" class="label"><rect/><text style=""><tspan class="row" x="0" dy="1em" xml:space="preserve">Spark Worker Pods</tspan></text></g></g><g transform="translate(814.009765625, 542.9140625)" id="flowchart-Batch-540" class="node default pod flowchart-label"><rect height="33.5" width="122.3828125" y="-16.75" x="-61.19140625" ry="0" rx="0" style="" class="basic label-container"/><g transform="translate(0, -9.25)" style="" class="label"><rect/><text style=""><tspan class="row" x="0" dy="1em" xml:space="preserve">Batch Job Pods</tspan></text></g></g><g transform="translate(893.052734375, 382.9140625)" id="flowchart-Op-538" class="node default controller flowchart-label"><rect height="33.5" width="200.5703125" y="-16.75" x="-100.28515625" ry="0" rx="0" style="" class="basic label-container"/><g transform="translate(0, -9.25)" style="" class="label"><rect/><text style=""><tspan class="row" x="0" dy="1em" xml:space="preserve">Spark Operator Controller</tspan></text></g></g><g transform="translate(387.248046875, 274.4140625)" id="flowchart-Proxy-535" class="node default controller flowchart-label"><rect height="33.5" width="134.4140625" y="-16.75" x="-67.20703125" ry="0" rx="0" style="" class="basic label-container"/><g transform="translate(0, -9.25)" style="" class="label"><rect/><text style=""><tspan class="row" x="0" dy="1em" xml:space="preserve">Gateway / Proxy</tspan></text></g></g><g transform="translate(473.091796875, 382.9140625)" id="flowchart-Hub-536" class="node default controller flowchart-label"><rect height="33.5" width="174.8359375" y="-16.75" x="-87.41796875" ry="0" rx="0" style="" class="basic label-container"/><g transform="translate(0, -9.25)" style="" class="label"><rect/><text style=""><tspan class="row" x="0" dy="1em" xml:space="preserve">JupyterHub Controller</tspan></text></g></g><g transform="translate(387.248046875, 542.9140625)" id="flowchart-NbPod-537" class="node default pod flowchart-label"><rect height="49.5" width="172.796875" y="-24.75" x="-86.3984375" ry="0" rx="0" style="" class="basic label-container"/><g transform="translate(0, -17.25)" style="" class="label"><rect/><text style=""><tspan class="row" x="0" dy="1em" xml:space="preserve">Jupyter Notebook Pod</tspan><tspan class="row" x="0" dy="1em" xml:space="preserve">(Spark Driver)</tspan></text></g></g><g transform="translate(282.2734375, 57.08203125)" id="flowchart-User-533" class="node default default flowchart-label"><circle height="33.5" width="114.1640625" r="57.08203125" ry="0" rx="0" style=""/><g transform="translate(0, -9.25)" style="" class="label"><rect/><text style=""><tspan class="row" x="0" dy="1em" xml:space="preserve">Data Scientist</tspan></text></g></g></g></g></g></svg>